<svg width="20" height="20" viewBox="0 0 20 20" fill="none" xmlns="http://www.w3.org/2000/svg">
<path d="M9.99609 5.16785C10.3632 5.16785 10.6609 5.46583 10.6611 5.83289V6.24304C11.6956 6.41802 12.4843 7.31603 12.4844 8.40027C12.4843 8.76739 12.1864 9.06513 11.8193 9.06531C11.4522 9.06513 11.1543 8.76739 11.1543 8.40027C11.1542 7.92531 10.7689 7.54009 10.2939 7.53992H9.79395C9.26655 7.54005 8.83908 7.96762 8.83887 8.495V8.66101C8.83909 9.03308 9.14063 9.33461 9.5127 9.33484H10.4805C11.587 9.33506 12.4841 10.2322 12.4844 11.3387V11.5048C12.4843 12.6084 11.7016 13.5293 10.6611 13.743V14.1669C10.661 14.534 10.3633 14.8319 9.99609 14.8319C9.62908 14.8317 9.33123 14.5339 9.33105 14.1669V13.7509C8.29439 13.5602 7.50879 12.6541 7.50879 11.5624C7.50886 11.1952 7.8066 10.8973 8.17383 10.8973C8.5409 10.8975 8.8388 11.1953 8.83887 11.5624C8.83887 12.0581 9.24065 12.4598 9.73633 12.4598H10.1992C10.7266 12.4597 11.1542 12.0322 11.1543 11.5048V11.3387C11.154 10.9667 10.8525 10.6651 10.4805 10.6649H9.5127C8.40609 10.6647 7.50902 9.76762 7.50879 8.66101V8.495C7.50897 7.39154 8.29086 6.47065 9.33105 6.25671V5.83289C9.3313 5.46594 9.62913 5.16802 9.99609 5.16785Z" fill="black"/>
<path d="M16.0498 10C16.0498 6.65868 13.3413 3.9502 10 3.9502C6.65868 3.9502 3.9502 6.65868 3.9502 10C3.9502 13.3413 6.65868 16.0498 10 16.0498V17.25C5.99594 17.25 2.75 14.0041 2.75 10C2.75 5.99594 5.99594 2.75 10 2.75C14.0041 2.75 17.25 5.99594 17.25 10C17.25 14.0041 14.0041 17.25 10 17.25V16.0498C13.3413 16.0498 16.0498 13.3413 16.0498 10Z" fill="black"/>
</svg>
