<svg width="20" height="20" viewBox="0 0 20 20" fill="none" xmlns="http://www.w3.org/2000/svg">
<path d="M10 2.75C14.0041 2.75 17.25 5.99594 17.25 10C17.25 10.5426 17.1872 11.0705 17.0742 11.5791C16.7288 11.3692 16.3489 11.2111 15.9453 11.1133C16.0125 10.7523 16.0498 10.3805 16.0498 10C16.0498 6.65868 13.3413 3.9502 10 3.9502C6.65868 3.9502 3.9502 6.65868 3.9502 10C3.9502 13.3413 6.65868 16.0498 10 16.0498C10.3805 16.0498 10.7523 16.0125 11.1133 15.9453C11.2111 16.3489 11.3692 16.7288 11.5791 17.0742C11.0705 17.1872 10.5426 17.25 10 17.25C5.99594 17.25 2.75 14.0041 2.75 10C2.75 5.99594 5.99594 2.75 10 2.75ZM9.99609 5.16797C10.3632 5.16797 10.6609 5.46595 10.6611 5.83301V6.24316C11.6956 6.41817 12.4843 7.31617 12.4844 8.40039C12.4842 8.76744 12.1864 9.06523 11.8193 9.06543C11.4523 9.06525 11.1544 8.76745 11.1543 8.40039C11.1542 7.92545 10.7689 7.54023 10.2939 7.54004H9.79395C9.26655 7.54017 8.83908 7.96774 8.83887 8.49512V8.66113C8.83916 9.03314 9.14067 9.33473 9.5127 9.33496H10.4805C11.587 9.33518 12.4841 10.2324 12.4844 11.3389V11.5049C12.4844 11.6474 12.4693 11.7866 12.4443 11.9219C11.9369 12.3437 11.5367 12.8895 11.2871 13.5117C11.0933 13.617 10.8837 13.6974 10.6611 13.7432V14.167C10.661 14.534 10.3633 14.832 9.99609 14.832C9.62912 14.8318 9.33129 14.5339 9.33105 14.167V13.751C8.29443 13.5603 7.50884 12.6542 7.50879 11.5625C7.50886 11.1953 7.8066 10.8975 8.17383 10.8975C8.5409 10.8977 8.8388 11.1954 8.83887 11.5625C8.83892 12.0582 9.24068 12.46 9.73633 12.46H10.1992C10.7266 12.4599 11.1542 12.0322 11.1543 11.5049V11.3389C11.154 10.9669 10.8525 10.6652 10.4805 10.665H9.5127C8.40613 10.6648 7.50909 9.76768 7.50879 8.66113V8.49512C7.50897 7.39166 8.29088 6.47078 9.33105 6.25684V5.83301C9.3313 5.46606 9.62913 5.16814 9.99609 5.16797Z" fill="black"/>
<path d="M17.75 15C17.75 13.4812 16.5188 12.25 15 12.25C13.4812 12.25 12.25 13.4812 12.25 15C12.25 16.5188 13.4812 17.75 15 17.75V18.5C13.067 18.5 11.5 16.933 11.5 15C11.5 13.067 13.067 11.5 15 11.5C16.933 11.5 18.5 13.067 18.5 15C18.5 16.933 16.933 18.5 15 18.5V17.75C16.5188 17.75 17.75 16.5188 17.75 15Z" fill="black"/>
<path d="M15.8574 13.5214C16.0526 13.3262 16.3692 13.3262 16.5644 13.5214C16.7596 13.7167 16.7596 14.0332 16.5644 14.2285L15.75 15.042L16.5214 15.8134C16.7167 16.0087 16.7167 16.3262 16.5214 16.5215C16.3263 16.7165 16.0097 16.7163 15.8144 16.5215L15.0429 15.75L14.2714 16.5215C14.0762 16.7163 13.7596 16.7165 13.5644 16.5215C13.3691 16.3262 13.3691 16.0087 13.5644 15.8134L14.3349 15.042L13.5214 14.2285C13.3262 14.0332 13.3262 13.7167 13.5214 13.5214C13.7167 13.3262 14.0332 13.3262 14.2285 13.5214L15.0429 14.3349L15.8574 13.5214Z" fill="black"/>
</svg>
