<svg width="24" height="24" viewBox="0 0 24 24" fill="none" xmlns="http://www.w3.org/2000/svg">
<path d="M2.3531 10.3331L2.46058 10.2257C5.09276 7.89874 8.4848 6.61438 11.998 6.61438C15.5113 6.61438 18.9033 7.89874 21.5355 10.2257C21.7682 10.4368 21.9555 10.6932 22.0858 10.9791C22.2162 11.265 22.2868 11.5746 22.2935 11.8887C22.3121 12.221 22.2613 12.5536 22.1444 12.8652C22.0276 13.1769 21.8472 13.4608 21.6147 13.699L20.6304 14.6833C20.2144 15.1046 19.6574 15.3574 19.0663 15.3928C18.4754 15.4283 17.892 15.2441 17.4286 14.8756L15.856 13.5971C15.5718 13.3722 15.3422 13.086 15.1846 12.7598C15.0268 12.4335 14.945 12.0758 14.9453 11.7134L14.7642 8.50032C12.9399 8.098 11.0497 8.1 9.22616 8.506L9.05648 11.7304C9.05336 12.0889 8.96992 12.4422 8.81232 12.7642C8.65464 13.0863 8.42688 13.369 8.14568 13.5914L6.54482 14.8642C6.08114 15.2305 5.49866 15.4128 4.90892 15.3762C4.31918 15.3397 3.76365 15.087 3.3487 14.6662L2.38138 13.699C2.14716 13.4606 1.9653 13.176 1.84742 12.8633C1.72956 12.5506 1.67829 12.2167 1.6969 11.8831C1.71154 11.302 1.94605 10.7481 2.3531 10.3331Z" fill="black"/>
</svg>
