<svg width="24" height="24" viewBox="0 0 24 24" fill="none" xmlns="http://www.w3.org/2000/svg">
<path fill-rule="evenodd" clip-rule="evenodd" d="M1.32676 9.949C7.4106 4.5769 16.5751 4.57004 22.6659 9.94904C23.8814 11.0228 23.8481 12.8761 22.7552 13.969L21.6656 15.0586C20.6631 16.0611 19.0793 16.1481 17.9716 15.2756L17.9688 15.2733L16.1991 13.8689C15.54 13.3456 15.1556 12.5592 15.1469 11.7227L14.9647 8.23078C13.0093 7.81269 10.9828 7.81296 9.02786 8.23113L8.84573 11.7101C8.83703 12.5465 8.45299 13.3324 7.79433 13.8556L6.00836 15.2756C4.90594 16.1438 3.31909 16.0666 2.32389 15.0553L1.2375 13.969C0.144753 12.8763 0.111018 11.0227 1.32676 9.949ZM2.65064 11.4481C3.96165 10.2905 5.43617 9.41737 6.99383 8.82897ZM6.99383 8.82897L6.84588 11.6549V11.6811C6.84588 11.9169 6.74009 12.1389 6.5501 12.2898L4.76945 13.7055C4.45006 13.9559 4.01254 13.921 3.74827 13.6514L2.65169 12.5548C2.6517 12.5548 2.65168 12.5548 2.65169 12.5548C2.32111 12.2242 2.35493 11.7094 2.65064 11.4481M16.9986 8.82848L17.1468 11.6676V11.6937C17.1468 11.9295 17.2525 12.1515 17.4423 12.3023C17.4424 12.3023 17.4422 12.3022 17.4423 12.3023L19.2092 13.7044C19.2095 13.7047 19.2099 13.705 19.2103 13.7053C19.5259 13.9531 19.9694 13.9264 20.2514 13.6444L21.341 12.5548C21.6715 12.2242 21.6379 11.7095 21.3419 11.448C20.0304 10.2898 18.5559 9.41668 16.9986 8.82848Z" fill="black"/>
</svg>
