<svg width="24" height="24" viewBox="0 0 24 24" fill="none" xmlns="http://www.w3.org/2000/svg">
<path d="M2.3531 10.3331L2.46058 10.2257C5.09276 7.89874 8.4848 6.61438 11.998 6.61438C15.5113 6.61438 18.9033 7.89874 21.5355 10.2257C21.7682 10.4368 21.9555 10.6932 22.0858 10.9791C22.2162 11.265 22.2868 11.5746 22.2935 11.8887C22.3121 12.221 22.2613 12.5536 22.1444 12.8652C22.0276 13.1769 21.8472 13.4608 21.6147 13.699L20.6304 14.6833C20.2144 15.1046 19.6574 15.3574 19.0663 15.3928C18.4754 15.4283 17.892 15.2441 17.4286 14.8756L15.856 13.5971C15.5718 13.3722 15.3422 13.086 15.1846 12.7598C15.0268 12.4335 14.945 12.0758 14.9453 11.7134L14.7642 8.50032C12.9399 8.098 11.0497 8.1 9.22616 8.506L9.05648 11.7304C9.05336 12.0889 8.96992 12.4422 8.81232 12.7642C8.65464 13.0863 8.42688 13.369 8.14568 13.5914L6.54482 14.8642C6.08114 15.2305 5.49866 15.4128 4.90892 15.3762C4.31918 15.3397 3.76365 15.087 3.3487 14.6662L2.38138 13.699C2.14716 13.4606 1.9653 13.176 1.84742 12.8633C1.72956 12.5506 1.67829 12.2167 1.6969 11.8831C1.71154 11.302 1.94605 10.7481 2.3531 10.3331ZM7.60266 8.99808C6.0996 9.54936 4.71257 10.3762 3.51275 11.4362C3.43942 11.5043 3.38059 11.5865 3.33977 11.6778C3.29894 11.7692 3.27697 11.8679 3.27517 11.9679C3.27098 12.0789 3.28995 12.1895 3.33086 12.2928C3.37176 12.396 3.4337 12.4896 3.51275 12.5676L4.49705 13.5518C4.63502 13.6918 4.8197 13.7762 5.01584 13.7886C5.21199 13.8012 5.40588 13.741 5.56054 13.6198L7.14446 12.33C7.23878 12.2558 7.31521 12.1614 7.36809 12.0537C7.42096 11.9459 7.44893 11.8278 7.44992 11.7078L7.60266 8.99808ZM20.4833 12.5676C20.5638 12.4883 20.6266 12.3929 20.6675 12.2876C20.7085 12.1822 20.7267 12.0694 20.7209 11.9566C20.7176 11.8585 20.6949 11.762 20.6542 11.6726C20.6134 11.5834 20.5553 11.503 20.4833 11.4362C19.2835 10.3762 17.8965 9.54936 16.3934 8.99808L16.5348 11.6851C16.5334 11.8113 16.562 11.936 16.618 12.049C16.674 12.1622 16.756 12.2603 16.8573 12.3357L18.4298 13.6141C18.5842 13.7377 18.779 13.7998 18.9764 13.7882C19.1738 13.7768 19.36 13.6926 19.499 13.5518L20.4833 12.5676Z" fill="black"/>
<path d="M3.2 13.6V11.2L8 8.79999L7.6 13.2571L3.2 13.6Z" fill="black"/>
<path fill-rule="evenodd" clip-rule="evenodd" d="M8.4625 8.12152L7.96818 13.6296L2.8 14.0324V10.9528L8.4625 8.12152ZM3.6 11.4472V13.1676L7.23183 12.8846L7.53751 9.47844L3.6 11.4472Z" fill="black"/>
<path d="M20.8 13.6V11.2L16 8.79999L16.4 13.2571L20.8 13.6Z" fill="black"/>
<path fill-rule="evenodd" clip-rule="evenodd" d="M15.5375 8.12152L21.2 10.9528V14.0324L16.0318 13.6296L15.5375 8.12152ZM16.4625 9.47844L16.7682 12.8846L20.4 13.1676V11.4472L16.4625 9.47844Z" fill="black"/>
</svg>
