<svg width="24" height="24" viewBox="0 0 24 24" fill="none" xmlns="http://www.w3.org/2000/svg">
<path fill-rule="evenodd" clip-rule="evenodd" d="M6 4C4.89543 4 4 4.89543 4 6V9C4 9.55228 4.44772 10 5 10C5.55228 10 6 9.55228 6 9V6H9C9.55228 6 10 5.55228 10 5C10 4.44772 9.55228 4 9 4H6ZM6 15C6 14.4477 5.55228 14 5 14C4.44772 14 4 14.4477 4 15V18C4 19.1046 4.89543 20 6 20H9C9.55228 20 10 19.5523 10 19C10 18.4477 9.55228 18 9 18H6V15ZM14 5C14 4.44772 14.4477 4 15 4H18C19.1046 4 20 4.89543 20 6V9C20 9.55228 19.5523 10 19 10C18.4477 10 18 9.55228 18 9V6H15C14.4477 6 14 5.55228 14 5ZM20 15C20 14.4477 19.5523 14 19 14C18.4477 14 18 14.4477 18 15V18H15C14.4477 18 14 18.4477 14 19C14 19.5523 14.4477 20 15 20H18C19.1046 20 20 19.1046 20 18V15Z" fill="black"/>
</svg>
