<svg width="24" height="24" viewBox="0 0 24 24" fill="none" xmlns="http://www.w3.org/2000/svg">
<path fill-rule="evenodd" clip-rule="evenodd" d="M8.4 3H8.35719H8.35719C7.27341 2.99999 6.39925 2.99998 5.69138 3.05782C4.96253 3.11737 4.32234 3.24318 3.73005 3.54497C2.78924 4.02433 2.02433 4.78924 1.54497 5.73005C1.24318 6.32234 1.11737 6.96253 1.05782 7.69138C0.999982 8.39925 0.99999 9.27341 1 10.3572V10.3572V10.4V13.6V13.6428C0.99999 14.7266 0.999982 15.6007 1.05782 16.3086C1.11737 17.0375 1.24318 17.6777 1.54497 18.27C2.02433 19.2108 2.78924 19.9757 3.73005 20.455C4.32234 20.7568 4.96253 20.8826 5.69138 20.9422C6.39923 21 7.27334 21 8.35706 21H8.35717H8.4H15.6H15.6428H15.6429C16.7267 21 17.6008 21 18.3086 20.9422C19.0375 20.8826 19.6777 20.7568 20.27 20.455C21.2108 19.9757 21.9757 19.2108 22.455 18.27C22.7568 17.6777 22.8826 17.0375 22.9422 16.3086C23 15.6008 23 14.7267 23 13.6429V13.6428V13.6V10.4V10.3572V10.3571C23 9.27334 23 8.39923 22.9422 7.69138C22.8826 6.96253 22.7568 6.32234 22.455 5.73005C21.9757 4.78924 21.2108 4.02433 20.27 3.54497C19.6777 3.24318 19.0375 3.11737 18.3086 3.05782C17.6007 2.99998 16.7266 2.99999 15.6428 3H15.6H8.4ZM4.63803 5.32698C4.90138 5.19279 5.24907 5.10062 5.85424 5.05118C6.47108 5.00078 7.26339 5 8.4 5H15.6C16.7366 5 17.5289 5.00078 18.1458 5.05118C18.7509 5.10062 19.0986 5.19279 19.362 5.32698C19.9265 5.6146 20.3854 6.07354 20.673 6.63803C20.8072 6.90138 20.8994 7.24907 20.9488 7.85424C20.9992 8.47108 21 9.26339 21 10.4V13.6C21 14.7366 20.9992 15.5289 20.9488 16.1458C20.8994 16.7509 20.8072 17.0986 20.673 17.362C20.3854 17.9265 19.9265 18.3854 19.362 18.673C19.0986 18.8072 18.7509 18.8994 18.1458 18.9488C17.5289 18.9992 16.7366 19 15.6 19H8.4C7.26339 19 6.47108 18.9992 5.85424 18.9488C5.24907 18.8994 4.90138 18.8072 4.63803 18.673C4.07354 18.3854 3.6146 17.9265 3.32698 17.362C3.19279 17.0986 3.10062 16.7509 3.05118 16.1458C3.00078 15.5289 3 14.7366 3 13.6V10.4C3 9.26339 3.00078 8.47108 3.05118 7.85424C3.10062 7.24907 3.19279 6.90138 3.32698 6.63803C3.6146 6.07354 4.07354 5.6146 4.63803 5.32698ZM11.109 11.546C11 11.7599 11 12.0399 11 12.6V15.4C11 15.9601 11 16.2401 11.109 16.454C11.2049 16.6422 11.3578 16.7951 11.546 16.891C11.7599 17 12.0399 17 12.6 17H17.4C17.9601 17 18.2401 17 18.454 16.891C18.6422 16.7951 18.7951 16.6422 18.891 16.454C19 16.2401 19 15.9601 19 15.4V12.6C19 12.0399 19 11.7599 18.891 11.546C18.7951 11.3578 18.6422 11.2049 18.454 11.109C18.2401 11 17.9601 11 17.4 11H12.6C12.0399 11 11.7599 11 11.546 11.109C11.3578 11.2049 11.2049 11.3578 11.109 11.546Z" fill="black"/>
</svg>
