<svg width="23" height="24" viewBox="0 0 23 24" fill="none" xmlns="http://www.w3.org/2000/svg">
<path d="M10.1797 3.0096L10.0897 3.0196L9.99967 3.0396L9.91967 3.0596L9.82967 3.0896L9.74967 3.1196L9.66967 3.1596L9.58967 3.1996L9.50967 3.2496L9.43967 3.2996L9.36967 3.3596L9.29967 3.4096L1.49967 10.6196L1.36967 10.7596L1.24967 10.9196L1.15967 11.0796L1.08967 11.2496L1.03967 11.4296L1.00967 11.6196L0.999673 11.8096L1.01967 11.9896L1.05967 12.1796L1.11967 12.3596L1.19967 12.5296L1.30967 12.6996L1.43967 12.8596L1.49967 12.9196L9.29967 20.1296L9.44967 20.2496L9.60967 20.3496L9.77967 20.4296L9.95967 20.4896L10.1497 20.5296L10.3297 20.5396L10.5097 20.5296L10.6997 20.4996L10.8797 20.4496L11.0497 20.3796L11.2097 20.2896L11.3697 20.1696L11.5097 20.0396L11.5697 19.9696L11.6297 19.8996L11.6797 19.8196L11.7197 19.7496L11.7697 19.6696L11.7997 19.5896L11.8397 19.4996L11.8597 19.4196L11.8897 19.3296L11.8997 19.2396L11.9197 19.1596V19.0696L11.9297 18.9696V16.1896L12.7297 16.2596L13.4997 16.3496L14.2197 16.4796L14.9097 16.6496L15.5497 16.8596L16.1597 17.0996L16.7197 17.3696L17.2497 17.6796L17.7397 18.0296L18.1797 18.4096L18.5897 18.8196L18.9597 19.2796L19.2997 19.7596L19.4397 19.9996L19.5197 20.1196L19.6197 20.2396L19.7297 20.3396L19.8497 20.4196L19.9797 20.4896L20.1097 20.5496L20.2497 20.5896L20.3997 20.6096H20.5397L20.6897 20.5996L20.8297 20.5596L20.9797 20.5096L21.1097 20.4496L21.1997 20.3896L21.2797 20.3296L21.3497 20.2696L21.4197 20.1996L21.4797 20.1296L21.5297 20.0496L21.5797 19.9596L21.6197 19.8796L21.6597 19.7896L21.6897 19.6896L21.7097 19.5996L21.7197 19.4996L21.7297 19.3996L21.6897 17.7596L21.5397 16.2296L21.2697 14.8196L20.8797 13.5196L20.3797 12.3496L19.7597 11.2996L19.0297 10.3696L18.1797 9.5696L17.2197 8.8896L16.1397 8.3296L14.9597 7.8996L13.6597 7.5996L12.2497 7.4196L11.9297 7.3996V4.5696L11.8197 4.3296L11.7097 4.1196L11.5897 3.9296L11.4797 3.7496L11.3597 3.5896L11.2497 3.4496L11.1197 3.3296L10.9997 3.2296L10.8797 3.1496L10.7497 3.0796L10.6197 3.0396L10.4897 3.0096L10.3597 2.9996H10.2697L10.1797 3.0096Z" fill="black"/>
</svg>
