<svg width="31" height="30" viewBox="0 0 31 30" fill="none" xmlns="http://www.w3.org/2000/svg">
<path fill-rule="evenodd" clip-rule="evenodd" d="M22.667 6H16.9097C16.114 6 15.351 6.31607 14.7883 6.87868L5.78835 15.8787C4.61678 17.0503 4.61677 18.9497 5.78835 20.1213L11.5457 25.8787C12.7173 27.0503 14.6168 27.0503 15.7883 25.8787L24.7883 16.8787C25.351 16.3161 25.667 15.553 25.667 14.7574V9C25.667 7.34315 24.3239 6 22.667 6ZM19.667 14C20.7716 14 21.667 13.1046 21.667 12C21.667 10.8954 20.7716 10 19.667 10C18.5625 10 17.667 10.8954 17.667 12C17.667 13.1046 18.5625 14 19.667 14Z" fill="currentColor"/>
</svg>
